<svg data-name="Layer 1" xmlns="http://www.w3.org/2000/svg" viewBox="4.75 4.75 118.5 118.5"><path stroke-width="3" d="M121.5 4.75H41.88a1.75 1.75 0 0 0-1.75 1.75v38.058H6.5a1.75 1.75 0 0 0-1.75 1.75v57.5a1.75 1.75 0 0 0 1.75 1.75h8.125V121.5a1.75 1.75 0 0 0 2.987 1.237l17.18-17.18h51.323a1.75 1.75 0 0 0 1.75-1.75V65.75h5.34l17.178 17.177a1.75 1.75 0 0 0 2.987-1.237V65.75h8.13a1.75 1.75 0 0 0 1.75-1.75V6.5a1.75 1.75 0 0 0-1.75-1.75zm-37.135 97.308h-50.3a1.75 1.75 0 0 0-1.237.513l-14.705 14.7v-13.463a1.75 1.75 0 0 0-1.75-1.75H8.25v-54H84.365zM119.75 62.25h-8.13a1.75 1.75 0 0 0-1.75 1.75v13.465l-14.7-14.7a1.75 1.75 0 0 0-1.237-.513h-6.068V46.308a1.75 1.75 0 0 0-1.75-1.75H43.63V8.25h76.12z"></path><circle cx="20.808" cy="75.058" r="4"></circle><circle cx="37.808" cy="75.058" r="4"></circle><circle cx="54.808" cy="75.058" r="4"></circle><circle cx="71.808" cy="75.058" r="4"></circle><circle cx="56.192" cy="35.25" r="4"></circle><circle cx="73.192" cy="35.25" r="4"></circle><circle cx="90.192" cy="35.25" r="4"></circle><circle cx="107.192" cy="35.25" r="4"></circle></svg>