<svg xmlns="http://www.w3.org/2000/svg" fill="#9CA3AF" viewBox="2 0 27.99 32"><g data-name="70-Trash"><path d="m29.89 6.55-1-2A1 1 0 0 0 28 4h-7V2a2 2 0 0 0-2-2h-6a2 2 0 0 0-2 2v2H4a1 1 0 0 0-.89.55l-1 2A1 1 0 0 0 3 8h2v22a2 2 0 0 0 .47 1.41A2 2 0 0 0 7 32h18a2 2 0 0 0 2-2V8h2a1 1 0 0 0 .89-1.45zM13 2h6v2h-6zm12 28H7V8h18z"></path><path d="M17 26V10a2 2 0 0 0-2 2l.06 14H15v2a2 2 0 0 0 2-2zM22 26V10a2 2 0 0 0-2 2l.06 14H20v2a2 2 0 0 0 2-2zM12 26V10a2 2 0 0 0-2 2l.06 14H10v2a2 2 0 0 0 2-2z"></path></g></svg>