<svg xmlns="http://www.w3.org/2000/svg" viewBox="0 0 32 32"><g data-name="21-User-Trash"><path d="M2 29c0-.78 1.92-1.7 3.24-2h.11l8-3a1 1 0 0 0 .65-1v-2.69a1 1 0 0 0-.57-.9A6 6 0 0 1 10 14a1 1 0 0 0-1-1v-2a1 1 0 0 0 1-1V8a6 6 0 0 1 12 0v2a1 1 0 0 0 1 1v2h2v-2a2 2 0 0 0-1-1.73V8A8 8 0 0 0 8 8v1.27A2 2 0 0 0 7 11v2a2 2 0 0 0 1 1.75 8.07 8.07 0 0 0 4 6.16v1.39L4.7 25c-.91.23-4.7 1.37-4.7 4v2a1 1 0 0 0 1 1h14v-2H2z"></path><path d="M30 18h-3v-1a2 2 0 0 0-2-2h-2a2 2 0 0 0-2 2v1h-3a2 2 0 0 0-2 2h2v9a3 3 0 0 0 3 3h6a3 3 0 0 0 3-3v-9h2a2 2 0 0 0-2-2zm-7-1h2v1h-2zm5 12a1 1 0 0 1-1 1h-6a1 1 0 0 1-1-1v-7h8z"></path></g></svg>